<?xml version="1.0" encoding="UTF-8"?>
<svg width="192px" height="32px" viewBox="0 0 192 32" version="1.1" xmlns="http://www.w3.org/2000/svg" xmlns:xlink="http://www.w3.org/1999/xlink">
    <!-- Generator: Sketch 57 (83077) - https://sketch.com -->
    <title>Combined Shape Copy</title>
    <desc>Created with Sketch.</desc>
    <g id="classic-studio" stroke="none" stroke-width="1" fill="none" fill-rule="evenodd">
        <g id="HPE---DESTOP" transform="translate(-404.000000, -110.000000)" fill="#231F20">
            <path d="M590.54513,110 C594.06513,110 596.17313,113.553 594.86813,116.63 C593.79913,119.096 589.04813,130.292 587.15713,134.741 C585.26713,139.19 580.02713,141.876 576.30213,141.876 L408.76213,141.876 C405.25013,141.876 403.08813,138.312 404.37513,135.246 C405.45413,132.702 410.90713,119.846 412.00513,117.332 C413.10213,114.817 416.77013,110 423.06813,110 L590.54513,110 Z M574.90263,112.4219 L571.942794,112.421991 C564.578401,112.422237 546.13863,112.4229 546.13863,112.4229 C540.90163,112.4229 536.57363,115.5559 534.72863,119.8179 C533.97163,121.5209 530.92563,128.7739 528.29563,135.0309 C527.97563,135.7919 527.68363,136.4879 527.43163,137.0929 C527.01663,138.0279 527.43963,138.9599 528.29563,139.3389 C528.55263,139.4539 528.84863,139.5189 529.17363,139.5189 L560.89363,139.5189 C564.16263,139.5189 566.12663,136.8739 566.34663,136.3299 C566.56763,135.7859 566.22363,134.8639 565.26363,134.8639 L549.08463,134.8639 C548.25663,134.8639 547.83663,134.0369 548.12463,133.3589 C548.31963,132.9179 549.02863,131.2559 549.48463,130.1939 C550.46163,127.9589 552.47063,127.5959 553.37763,127.5959 L563.35063,127.5959 C566.17763,127.5959 568.38963,125.1559 568.64163,124.5359 C568.89363,123.9159 568.39363,123.1329 567.62163,123.1329 L554.23763,123.1329 C553.13863,123.1329 552.93063,122.1189 553.15863,121.5749 C553.42963,120.9469 553.48763,120.8589 554.01363,119.6569 C554.53963,118.4559 555.88463,117.0769 557.99563,117.0769 L570.61763,117.0769 C573.68963,117.0769 575.63163,114.5679 575.90863,113.9529 C576.18663,113.3379 575.86663,112.4219 574.90263,112.4219 Z M523.38113,112.4229 L492.97413,112.4229 C488.82113,112.4229 483.83913,115.0779 481.94513,119.5629 C479.94513,124.2779 474.45413,137.0609 474.15113,137.7969 C473.84713,138.5319 474.18213,139.5179 475.10613,139.5179 L485.87513,139.5179 C489.01313,139.5179 491.29113,137.6029 492.18413,135.4379 C493.07613,133.2729 498.09513,121.6069 498.83913,119.9449 C499.45113,118.5149 500.93613,116.8219 503.42813,116.8219 L510.12213,116.8219 C511.56813,116.8219 512.70913,118.4289 512.16213,119.6909 C511.61413,120.9519 511.77913,120.4789 511.39713,121.4119 C511.01513,122.3449 509.73813,123.1329 508.59213,123.1329 L503.55613,123.1329 C502.86513,123.1329 502.49613,123.5199 502.34513,123.8989 C502.19413,124.2769 501.71613,125.4609 501.45213,126.1299 C501.18813,126.7979 501.73913,127.5959 502.47213,127.5959 L520.89513,127.5959 C523.96213,127.5959 526.17713,125.3059 526.88713,123.5159 C527.59813,121.7249 527.62613,121.8819 528.54513,119.6269 C530.04213,116.3739 527.23213,112.4229 523.38113,112.4229 Z M449.37133,112.4229 L438.53433,112.4229 C435.33933,112.4229 433.14533,114.6559 432.35033,116.5029 C431.55533,118.3499 423.60233,137.0609 423.29833,137.7969 C422.99433,138.5319 423.33033,139.5179 424.25433,139.5179 L435.02733,139.5179 C438.16733,139.5179 440.44633,137.6029 441.33833,135.4379 C442.23133,133.2729 442.18333,133.3859 442.86933,131.7399 C443.55433,130.0939 445.10733,128.8709 447.39533,128.8709 L453.13233,128.8709 C453.80533,128.8709 454.47333,129.5489 454.08833,130.5279 C453.70333,131.5079 451.31233,137.1169 450.96433,137.9239 C450.61633,138.7309 451.26233,139.5179 451.92033,139.5179 L462.88533,139.5179 C466.03133,139.5179 468.18633,137.1969 469.00533,135.3099 C469.82433,133.4229 477.78633,114.8799 478.12133,114.0799 C478.45533,113.2809 477.93633,112.4229 477.22833,112.4229 L466.13633,112.4229 C463.63433,112.4229 461.15533,114.1029 460.14433,116.5029 C459.13333,118.9029 459.51333,118.0219 458.61433,120.1369 C457.71533,122.2519 455.84133,123.1329 454.15233,123.1329 L448.28733,123.1329 C447.60233,123.1329 446.95233,122.4609 447.26733,121.6029 C447.67433,120.6419 450.05433,114.9509 450.45533,114.0169 C450.85433,113.0829 450.14533,112.4229 449.37133,112.4229 Z" id="Combined-Shape-Copy"></path>
        </g>
    </g>
</svg>